<svg xmlns="http://www.w3.org/2000/svg" xmlns:xlink="http://www.w3.org/1999/xlink" width="800" zoomAndPan="magnify" viewBox="0 0 600 599.999999" height="800" preserveAspectRatio="xMidYMid meet" version="1.0"><defs><g/></defs><path fill="#000000" d="M 239.5 283.394531 L 239.5 260.886719 C 239.5 260.691406 239.386719 260.59375 239.167969 260.59375 L 232.425781 260.59375 C 232.082031 260.59375 231.789062 260.472656 231.542969 260.226562 C 231.300781 259.980469 231.179688 259.6875 231.179688 259.347656 C 231.179688 259.003906 231.300781 258.710938 231.542969 258.464844 C 231.789062 258.21875 232.082031 258.097656 232.425781 258.097656 L 249.472656 258.097656 C 249.8125 258.097656 250.105469 258.21875 250.351562 258.464844 C 250.597656 258.710938 250.71875 259.003906 250.71875 259.347656 C 250.71875 259.6875 250.597656 259.980469 250.351562 260.226562 C 250.105469 260.472656 249.8125 260.59375 249.472656 260.59375 L 242.726562 260.59375 C 242.53125 260.59375 242.433594 260.691406 242.433594 260.886719 L 242.433594 283.394531 C 242.433594 283.785156 242.292969 284.128906 242.011719 284.421875 C 241.730469 284.714844 241.378906 284.863281 240.964844 284.863281 C 240.550781 284.863281 240.203125 284.714844 239.921875 284.421875 C 239.640625 284.128906 239.5 283.785156 239.5 283.394531 Z M 239.5 283.394531 " fill-opacity="1" fill-rule="nonzero"/><path fill="#000000" d="M 261.605469 267.59375 C 259.820312 267.59375 258.390625 268.148438 257.3125 269.261719 C 256.238281 270.375 255.652344 271.933594 255.554688 273.9375 C 255.554688 274.132812 255.652344 274.230469 255.847656 274.230469 L 266.992188 274.230469 C 267.1875 274.230469 267.285156 274.132812 267.285156 273.9375 C 267.1875 271.910156 266.648438 270.34375 265.671875 269.242188 C 264.695312 268.144531 263.339844 267.59375 261.605469 267.59375 Z M 261.96875 285.226562 C 259.234375 285.226562 257.019531 284.335938 255.332031 282.554688 C 253.648438 280.769531 252.804688 278.359375 252.804688 275.328125 C 252.804688 272.25 253.59375 269.832031 255.167969 268.074219 C 256.746094 266.3125 258.890625 265.433594 261.605469 265.433594 C 264.097656 265.433594 266.0625 266.1875 267.503906 267.703125 C 268.949219 269.21875 269.742188 271.40625 269.886719 274.265625 C 269.914062 274.851562 269.71875 275.347656 269.300781 275.75 C 268.886719 276.15625 268.386719 276.355469 267.800781 276.355469 L 255.847656 276.355469 C 255.652344 276.355469 255.554688 276.453125 255.554688 276.648438 C 255.652344 278.628906 256.308594 280.191406 257.515625 281.34375 C 258.726562 282.492188 260.296875 283.066406 262.226562 283.066406 C 263.914062 283.066406 265.453125 282.746094 266.84375 282.113281 C 267.113281 281.992188 267.382812 281.984375 267.652344 282.09375 C 267.921875 282.203125 268.105469 282.394531 268.203125 282.660156 C 268.300781 282.953125 268.289062 283.246094 268.167969 283.542969 C 268.042969 283.835938 267.835938 284.042969 267.542969 284.164062 C 265.882812 284.871094 264.023438 285.226562 261.96875 285.226562 Z M 261.96875 285.226562 " fill-opacity="1" fill-rule="nonzero"/><path fill="#000000" d="M 282.5 274.816406 C 279.933594 274.816406 277.945312 275.25 276.539062 276.121094 C 275.136719 276.988281 274.433594 278.152344 274.433594 279.617188 C 274.433594 280.71875 274.777344 281.582031 275.460938 282.207031 C 276.144531 282.828125 277.058594 283.140625 278.207031 283.140625 C 279.894531 283.140625 281.355469 282.535156 282.589844 281.324219 C 283.824219 280.113281 284.445312 278.628906 284.445312 276.867188 L 284.445312 275.148438 C 284.445312 274.925781 284.332031 274.816406 284.109375 274.816406 Z M 277.585938 285.226562 C 275.824219 285.226562 274.421875 284.734375 273.367188 283.746094 C 272.316406 282.753906 271.792969 281.417969 271.792969 279.730469 C 271.792969 277.601562 272.722656 275.910156 274.578125 274.652344 C 276.4375 273.394531 279.078125 272.761719 282.5 272.761719 L 284.109375 272.761719 C 284.332031 272.761719 284.445312 272.664062 284.445312 272.46875 C 284.417969 270.660156 284.054688 269.402344 283.359375 268.691406 C 282.664062 267.984375 281.4375 267.628906 279.675781 267.628906 C 277.867188 267.628906 276.058594 268.023438 274.25 268.804688 C 273.980469 268.925781 273.71875 268.925781 273.460938 268.804688 C 273.207031 268.683594 273.054688 268.488281 273.003906 268.21875 C 272.929688 267.898438 272.964844 267.589844 273.109375 267.28125 C 273.257812 266.976562 273.480469 266.765625 273.773438 266.640625 C 275.65625 265.835938 277.621094 265.433594 279.675781 265.433594 C 282.339844 265.433594 284.246094 265.980469 285.394531 267.082031 C 286.542969 268.183594 287.117188 269.988281 287.117188 272.503906 L 287.117188 279.730469 C 287.117188 281 287.226562 282.285156 287.449219 283.582031 C 287.496094 283.921875 287.410156 284.222656 287.191406 284.480469 C 286.972656 284.734375 286.703125 284.863281 286.382812 284.863281 C 285.996094 284.863281 285.660156 284.742188 285.378906 284.496094 C 285.097656 284.25 284.929688 283.945312 284.878906 283.582031 C 284.832031 283.117188 284.785156 282.441406 284.738281 281.5625 C 284.738281 281.515625 284.722656 281.488281 284.699219 281.488281 C 284.648438 281.488281 284.625 281.515625 284.625 281.5625 C 283.941406 282.710938 282.980469 283.609375 281.75 284.257812 C 280.515625 284.902344 279.125 285.226562 277.585938 285.226562 Z M 277.585938 285.226562 " fill-opacity="1" fill-rule="nonzero"/><path fill="#000000" d="M 295.289062 258.796875 L 295.289062 259.96875 C 295.289062 260.359375 295.15625 260.695312 294.886719 260.976562 C 294.617188 261.257812 294.289062 261.398438 293.898438 261.398438 C 293.507812 261.398438 293.171875 261.257812 292.890625 260.976562 C 292.609375 260.695312 292.46875 260.359375 292.46875 259.96875 L 292.46875 258.796875 C 292.46875 258.40625 292.609375 258.066406 292.890625 257.785156 C 293.171875 257.503906 293.507812 257.363281 293.898438 257.363281 C 294.289062 257.363281 294.617188 257.503906 294.886719 257.785156 C 295.15625 258.066406 295.289062 258.40625 295.289062 258.796875 Z M 295.289062 267.230469 L 295.289062 283.433594 C 295.289062 283.824219 295.15625 284.15625 294.886719 284.441406 C 294.617188 284.722656 294.289062 284.863281 293.898438 284.863281 C 293.507812 284.863281 293.171875 284.722656 292.890625 284.441406 C 292.609375 284.15625 292.46875 283.824219 292.46875 283.433594 L 292.46875 267.230469 C 292.46875 266.835938 292.609375 266.5 292.890625 266.21875 C 293.171875 265.9375 293.507812 265.796875 293.898438 265.796875 C 294.289062 265.796875 294.617188 265.9375 294.886719 266.21875 C 295.15625 266.5 295.289062 266.835938 295.289062 267.230469 Z M 295.289062 267.230469 " fill-opacity="1" fill-rule="nonzero"/><path fill="#000000" d="M 306.988281 283.027344 C 308.402344 283.027344 309.492188 282.753906 310.246094 282.207031 C 311.007812 281.65625 311.386719 280.867188 311.386719 279.839844 C 311.386719 278.863281 311.050781 278.105469 310.375 277.566406 C 309.707031 277.03125 308.527344 276.613281 306.839844 276.320312 C 304.394531 275.878906 302.636719 275.199219 301.558594 274.285156 C 300.484375 273.367188 299.945312 272.128906 299.945312 270.566406 C 299.945312 269 300.5625 267.753906 301.796875 266.824219 C 303.03125 265.894531 304.761719 265.433594 306.988281 265.433594 C 308.917969 265.433594 310.726562 265.773438 312.414062 266.457031 C 312.703125 266.582031 312.921875 266.789062 313.070312 267.082031 C 313.214844 267.375 313.242188 267.679688 313.144531 268 C 313.070312 268.265625 312.90625 268.46875 312.648438 268.601562 C 312.394531 268.738281 312.132812 268.742188 311.863281 268.621094 C 310.296875 267.960938 308.671875 267.628906 306.988281 267.628906 C 305.570312 267.628906 304.488281 267.886719 303.742188 268.398438 C 302.996094 268.914062 302.625 269.636719 302.625 270.566406 C 302.625 271.445312 302.945312 272.140625 303.59375 272.652344 C 304.242188 273.164062 305.421875 273.570312 307.132812 273.863281 C 309.625 274.28125 311.414062 274.964844 312.503906 275.917969 C 313.589844 276.867188 314.136719 278.175781 314.136719 279.839844 C 314.136719 281.5 313.503906 282.816406 312.246094 283.78125 C 310.988281 284.746094 309.234375 285.226562 306.988281 285.226562 C 304.761719 285.226562 302.757812 284.800781 300.972656 283.945312 C 300.679688 283.796875 300.457031 283.566406 300.3125 283.246094 C 300.164062 282.929688 300.140625 282.613281 300.238281 282.296875 C 300.3125 282.027344 300.484375 281.835938 300.75 281.726562 C 301.019531 281.617188 301.277344 281.625 301.523438 281.746094 C 303.28125 282.601562 305.105469 283.027344 306.988281 283.027344 Z M 306.988281 283.027344 " fill-opacity="1" fill-rule="nonzero"/><path fill="#000000" d="M 319.960938 274.15625 L 319.960938 283.503906 C 319.960938 283.871094 319.835938 284.191406 319.578125 284.460938 C 319.320312 284.730469 319.007812 284.863281 318.640625 284.863281 C 318.273438 284.863281 317.957031 284.730469 317.6875 284.460938 C 317.417969 284.191406 317.285156 283.871094 317.285156 283.503906 L 317.285156 267.082031 C 317.285156 266.738281 317.414062 266.441406 317.667969 266.183594 C 317.925781 265.925781 318.226562 265.796875 318.566406 265.796875 C 318.910156 265.796875 319.214844 265.925781 319.484375 266.183594 C 319.753906 266.441406 319.886719 266.738281 319.886719 267.082031 L 319.886719 268.914062 C 319.886719 268.9375 319.902344 268.949219 319.925781 268.949219 C 319.976562 268.949219 320 268.925781 320 268.875 C 321.390625 266.582031 323.054688 265.433594 324.984375 265.433594 C 327.40625 265.433594 329.105469 266.628906 330.082031 269.023438 C 330.082031 269.074219 330.105469 269.097656 330.152344 269.097656 C 330.203125 269.097656 330.230469 269.074219 330.230469 269.023438 C 331.523438 266.628906 333.355469 265.433594 335.726562 265.433594 C 337.707031 265.433594 339.160156 266.011719 340.085938 267.175781 C 341.019531 268.335938 341.484375 270.199219 341.484375 272.761719 L 341.484375 283.542969 C 341.484375 283.910156 341.355469 284.222656 341.097656 284.480469 C 340.839844 284.734375 340.53125 284.863281 340.164062 284.863281 C 339.796875 284.863281 339.484375 284.734375 339.226562 284.480469 C 338.972656 284.222656 338.84375 283.910156 338.84375 283.542969 L 338.84375 273.496094 C 338.84375 271.273438 338.558594 269.738281 337.996094 268.898438 C 337.4375 268.050781 336.484375 267.628906 335.140625 267.628906 C 333.964844 267.628906 332.9375 268.21875 332.058594 269.390625 C 331.179688 270.5625 330.742188 271.992188 330.742188 273.679688 L 330.742188 283.542969 C 330.742188 283.910156 330.613281 284.222656 330.355469 284.480469 C 330.097656 284.734375 329.789062 284.863281 329.421875 284.863281 C 329.054688 284.863281 328.742188 284.734375 328.484375 284.480469 C 328.230469 284.222656 328.101562 283.910156 328.101562 283.542969 L 328.101562 273.496094 C 328.101562 271.296875 327.816406 269.769531 327.238281 268.914062 C 326.664062 268.058594 325.707031 267.628906 324.363281 267.628906 C 323.261719 267.628906 322.253906 268.273438 321.335938 269.554688 C 320.421875 270.839844 319.960938 272.371094 319.960938 274.15625 Z M 319.960938 274.15625 " fill-opacity="1" fill-rule="nonzero"/><path fill="#000000" d="M 347.894531 274.15625 L 347.894531 283.503906 C 347.894531 283.871094 347.765625 284.191406 347.507812 284.460938 C 347.253906 284.730469 346.941406 284.863281 346.574219 284.863281 C 346.207031 284.863281 345.890625 284.730469 345.621094 284.460938 C 345.351562 284.191406 345.21875 283.871094 345.21875 283.503906 L 345.21875 267.082031 C 345.21875 266.738281 345.347656 266.441406 345.601562 266.183594 C 345.859375 265.925781 346.160156 265.796875 346.5 265.796875 C 346.84375 265.796875 347.148438 265.925781 347.417969 266.183594 C 347.6875 266.441406 347.820312 266.738281 347.820312 267.082031 L 347.820312 268.914062 C 347.820312 268.9375 347.832031 268.949219 347.859375 268.949219 C 347.90625 268.949219 347.933594 268.925781 347.933594 268.875 C 349.324219 266.582031 350.988281 265.433594 352.917969 265.433594 C 355.339844 265.433594 357.035156 266.628906 358.015625 269.023438 C 358.015625 269.074219 358.039062 269.097656 358.085938 269.097656 C 358.136719 269.097656 358.164062 269.074219 358.164062 269.023438 C 359.457031 266.628906 361.289062 265.433594 363.660156 265.433594 C 365.640625 265.433594 367.09375 266.011719 368.019531 267.175781 C 368.949219 268.335938 369.417969 270.199219 369.417969 272.761719 L 369.417969 283.542969 C 369.417969 283.910156 369.289062 284.222656 369.03125 284.480469 C 368.773438 284.734375 368.460938 284.863281 368.097656 284.863281 C 367.730469 284.863281 367.417969 284.734375 367.160156 284.480469 C 366.902344 284.222656 366.773438 283.910156 366.773438 283.542969 L 366.773438 273.496094 C 366.773438 271.273438 366.492188 269.738281 365.929688 268.898438 C 365.371094 268.050781 364.417969 267.628906 363.074219 267.628906 C 361.898438 267.628906 360.871094 268.21875 359.992188 269.390625 C 359.113281 270.5625 358.675781 271.992188 358.675781 273.679688 L 358.675781 283.542969 C 358.675781 283.910156 358.546875 284.222656 358.289062 284.480469 C 358.03125 284.734375 357.71875 284.863281 357.355469 284.863281 C 356.988281 284.863281 356.675781 284.734375 356.417969 284.480469 C 356.164062 284.222656 356.035156 283.910156 356.035156 283.542969 L 356.035156 273.496094 C 356.035156 271.296875 355.75 269.769531 355.171875 268.914062 C 354.597656 268.058594 353.636719 267.628906 352.296875 267.628906 C 351.195312 267.628906 350.1875 268.273438 349.269531 269.554688 C 348.355469 270.839844 347.894531 272.371094 347.894531 274.15625 Z M 347.894531 274.15625 " fill-opacity="1" fill-rule="nonzero"/><g fill="#000000" fill-opacity="1"><g transform="translate(238.254336, 331.205279)"><g><path d="M 20.3125 -11.375 C 20.6875 -11.550781 21.066406 -11.597656 21.453125 -11.515625 C 21.847656 -11.441406 22.222656 -11.394531 22.578125 -11.375 L 24.6875 -10.578125 C 25.21875 -10.140625 25.425781 -9.726562 25.3125 -9.34375 C 25.195312 -8.957031 24.835938 -8.664062 24.234375 -8.46875 C 23.910156 -8.414062 23.613281 -8.382812 23.34375 -8.375 C 23.082031 -8.363281 22.8125 -8.359375 22.53125 -8.359375 C 22.144531 -8.285156 21.796875 -8.207031 21.484375 -8.125 C 21.171875 -8.039062 20.835938 -7.988281 20.484375 -7.96875 C 20.285156 -7.96875 20.113281 -8.039062 19.96875 -8.1875 C 19.832031 -8.34375 19.660156 -8.4375 19.453125 -8.46875 L 19.109375 -8.359375 C 17.160156 -7.941406 15.300781 -7.546875 13.53125 -7.171875 C 11.769531 -6.804688 9.894531 -6.425781 7.90625 -6.03125 C 7.113281 -5.9375 6.335938 -6.09375 5.578125 -6.5 C 4.816406 -6.90625 4.25 -7.601562 3.875 -8.59375 C 3.757812 -9.0625 3.863281 -9.394531 4.1875 -9.59375 C 4.519531 -9.789062 4.890625 -9.738281 5.296875 -9.4375 C 5.441406 -9.25 5.585938 -9.164062 5.734375 -9.1875 C 5.890625 -9.207031 6.046875 -9.234375 6.203125 -9.265625 C 7.679688 -9.378906 9.082031 -9.5 10.40625 -9.625 C 11.738281 -9.75 13.160156 -9.9375 14.671875 -10.1875 C 15.597656 -10.375 16.492188 -10.566406 17.359375 -10.765625 C 18.222656 -10.960938 19.128906 -11.128906 20.078125 -11.265625 Z M 20.3125 -11.375 "/></g></g></g><g fill="#000000" fill-opacity="1"><g transform="translate(267.375428, 331.205279)"><g><path d="M 7 -2.453125 C 7.207031 -2.578125 7.34375 -2.648438 7.40625 -2.671875 C 7.476562 -2.691406 7.609375 -2.671875 7.796875 -2.609375 C 7.984375 -2.515625 8.148438 -2.453125 8.296875 -2.421875 C 8.453125 -2.398438 8.644531 -2.3125 8.875 -2.15625 C 8.925781 -2.125 9 -2.113281 9.09375 -2.125 C 9.195312 -2.144531 9.296875 -2.15625 9.390625 -2.15625 C 9.535156 -2.289062 9.660156 -2.335938 9.765625 -2.296875 C 9.867188 -2.265625 9.910156 -2.144531 9.890625 -1.9375 C 9.796875 -1.5 9.613281 -1.0625 9.34375 -0.625 C 9.070312 -0.1875 8.707031 0.171875 8.25 0.453125 C 8.039062 0.722656 7.835938 0.972656 7.640625 1.203125 C 7.453125 1.441406 7.21875 1.628906 6.9375 1.765625 C 6.65625 1.703125 6.398438 1.515625 6.171875 1.203125 C 5.941406 0.890625 5.78125 0.617188 5.6875 0.390625 C 5.632812 -0.171875 5.679688 -0.734375 5.828125 -1.296875 C 5.984375 -1.867188 6.375 -2.253906 7 -2.453125 Z M 11.3125 -7.796875 L 11.203125 -7.796875 C 11.035156 -7.710938 10.929688 -7.617188 10.890625 -7.515625 C 10.859375 -7.410156 10.832031 -7.296875 10.8125 -7.171875 C 10.84375 -6.785156 11.023438 -6.691406 11.359375 -6.890625 C 11.691406 -7.097656 11.675781 -7.398438 11.3125 -7.796875 Z M 12.515625 -8.703125 C 12.304688 -8.628906 12.160156 -8.523438 12.078125 -8.390625 C 11.992188 -8.253906 12.023438 -8.09375 12.171875 -7.90625 C 12.515625 -7.5625 12.71875 -7.585938 12.78125 -7.984375 C 12.851562 -8.390625 12.765625 -8.628906 12.515625 -8.703125 Z M 19.96875 -9.609375 C 19.875 -9.609375 19.753906 -9.582031 19.609375 -9.53125 C 19.460938 -9.488281 19.351562 -9.398438 19.28125 -9.265625 C 19.207031 -9.023438 19.148438 -8.769531 19.109375 -8.5 C 19.078125 -8.238281 19.0625 -7.984375 19.0625 -7.734375 C 19.039062 -7.660156 19.039062 -7.585938 19.0625 -7.515625 C 19.09375 -7.453125 19.164062 -7.453125 19.28125 -7.515625 C 19.4375 -7.816406 19.625 -8.195312 19.84375 -8.65625 C 20.070312 -9.125 20.113281 -9.441406 19.96875 -9.609375 Z M 22.296875 -6.546875 L 22.46875 -6.71875 C 22.53125 -7.375 22.582031 -8.007812 22.625 -8.625 C 22.675781 -9.25 22.644531 -9.863281 22.53125 -10.46875 C 22.445312 -10.582031 22.34375 -10.597656 22.21875 -10.515625 C 22.101562 -10.441406 22.015625 -10.367188 21.953125 -10.296875 L 20.1875 -7.046875 C 20.082031 -6.859375 20.0625 -6.726562 20.125 -6.65625 C 20.1875 -6.582031 20.320312 -6.546875 20.53125 -6.546875 Z M 12.578125 -11.265625 C 12.160156 -11.203125 11.84375 -11.054688 11.625 -10.828125 C 11.414062 -10.609375 11.425781 -10.28125 11.65625 -9.84375 C 11.71875 -9.820312 11.816406 -9.835938 11.953125 -9.890625 C 12.097656 -9.953125 12.226562 -9.992188 12.34375 -10.015625 C 12.707031 -10.128906 12.90625 -10.351562 12.9375 -10.6875 C 12.976562 -11.03125 12.859375 -11.222656 12.578125 -11.265625 Z M 13.03125 -13.65625 C 12.914062 -13.800781 12.8125 -13.84375 12.71875 -13.78125 C 12.632812 -13.71875 12.546875 -13.65625 12.453125 -13.59375 L 11.65625 -13.140625 C 11.507812 -12.929688 11.460938 -12.726562 11.515625 -12.53125 C 11.578125 -12.332031 11.757812 -12.25 12.0625 -12.28125 C 12.550781 -12.363281 12.84375 -12.492188 12.9375 -12.671875 C 13.03125 -12.847656 13.0625 -13.175781 13.03125 -13.65625 Z M 22.46875 -14.90625 L 22.1875 -14.796875 C 21.976562 -14.679688 21.789062 -14.585938 21.625 -14.515625 C 21.46875 -14.453125 21.3125 -14.390625 21.15625 -14.328125 C 20.300781 -13.972656 19.804688 -13.613281 19.671875 -13.25 C 19.546875 -12.894531 19.492188 -12.363281 19.515625 -11.65625 C 19.515625 -11.488281 19.566406 -11.410156 19.671875 -11.421875 C 19.773438 -11.429688 19.875 -11.414062 19.96875 -11.375 C 20.34375 -11.445312 20.695312 -11.519531 21.03125 -11.59375 C 21.363281 -11.675781 21.75 -11.660156 22.1875 -11.546875 C 22.375 -11.523438 22.503906 -11.550781 22.578125 -11.625 C 22.660156 -11.707031 22.703125 -11.851562 22.703125 -12.0625 L 22.75 -14 C 22.769531 -14.125 22.765625 -14.300781 22.734375 -14.53125 C 22.710938 -14.757812 22.625 -14.882812 22.46875 -14.90625 Z M 13.25 -20.53125 C 13.425781 -20.664062 13.59375 -20.710938 13.75 -20.671875 C 13.914062 -20.640625 14.09375 -20.535156 14.28125 -20.359375 C 14.75 -19.960938 15.019531 -19.535156 15.09375 -19.078125 C 15.175781 -18.628906 15.242188 -18.164062 15.296875 -17.6875 C 15.640625 -17.40625 15.828125 -17.09375 15.859375 -16.75 C 15.898438 -16.40625 15.769531 -16.070312 15.46875 -15.75 C 15.351562 -15.582031 15.210938 -15.429688 15.046875 -15.296875 C 14.878906 -15.171875 14.738281 -15.003906 14.625 -14.796875 C 14.488281 -13.691406 14.367188 -12.625 14.265625 -11.59375 C 14.160156 -10.5625 14.050781 -9.46875 13.9375 -8.3125 C 13.894531 -8.15625 13.921875 -8.0625 14.015625 -8.03125 C 14.117188 -8.007812 14.242188 -8.046875 14.390625 -8.140625 L 14.90625 -8.53125 C 15.207031 -8.414062 15.5 -8.367188 15.78125 -8.390625 C 16.070312 -8.410156 16.367188 -8.34375 16.671875 -8.1875 C 16.816406 -8.132812 16.90625 -8.140625 16.9375 -8.203125 C 16.96875 -8.273438 17.007812 -8.382812 17.0625 -8.53125 L 17.234375 -9.84375 C 17.296875 -10.46875 17.304688 -11.050781 17.265625 -11.59375 C 17.222656 -12.132812 16.875 -12.6875 16.21875 -13.25 C 16.039062 -13.4375 15.957031 -13.613281 15.96875 -13.78125 C 15.976562 -13.957031 16.097656 -14.066406 16.328125 -14.109375 C 16.585938 -14.242188 16.820312 -14.390625 17.03125 -14.546875 C 17.238281 -14.710938 17.476562 -14.847656 17.75 -14.953125 C 18.625 -15.242188 19.460938 -15.507812 20.265625 -15.75 C 21.066406 -16 21.914062 -16.304688 22.8125 -16.671875 C 23 -16.796875 23.28125 -16.785156 23.65625 -16.640625 C 24.039062 -16.503906 24.304688 -16.320312 24.453125 -16.09375 C 24.859375 -15.8125 25.078125 -15.546875 25.109375 -15.296875 C 25.148438 -15.054688 25.160156 -14.753906 25.140625 -14.390625 C 25.085938 -13.992188 24.96875 -13.632812 24.78125 -13.3125 C 24.601562 -12.988281 24.492188 -12.585938 24.453125 -12.109375 C 24.453125 -10.503906 24.425781 -8.960938 24.375 -7.484375 C 24.332031 -6.003906 24.472656 -4.4375 24.796875 -2.78125 C 24.859375 -2.539062 24.929688 -2.265625 25.015625 -1.953125 C 25.097656 -1.640625 25.253906 -1.367188 25.484375 -1.140625 C 25.734375 -0.960938 25.910156 -0.804688 26.015625 -0.671875 C 26.117188 -0.546875 26.09375 -0.34375 25.9375 -0.0625 L 25.765625 0.453125 L 25.765625 1.9375 C 25.648438 2.675781 25.398438 3.082031 25.015625 3.15625 C 24.640625 3.226562 24.171875 3.125 23.609375 2.84375 C 22.890625 2.125 22.257812 1.476562 21.71875 0.90625 C 21.175781 0.34375 20.554688 -0.300781 19.859375 -1.03125 C 19.609375 -1.425781 19.394531 -1.8125 19.21875 -2.1875 C 19.050781 -2.570312 18.882812 -2.960938 18.71875 -3.359375 C 18.695312 -3.503906 18.722656 -3.597656 18.796875 -3.640625 C 18.878906 -3.691406 18.984375 -3.65625 19.109375 -3.53125 C 19.585938 -2.9375 20.054688 -2.472656 20.515625 -2.140625 C 20.984375 -1.816406 21.519531 -1.632812 22.125 -1.59375 C 22.332031 -1.53125 22.484375 -1.546875 22.578125 -1.640625 C 22.671875 -1.742188 22.726562 -1.898438 22.75 -2.109375 L 22.40625 -4.828125 C 22.394531 -5.003906 22.347656 -5.101562 22.265625 -5.125 C 22.191406 -5.15625 22.109375 -5.15625 22.015625 -5.125 L 19.90625 -4.671875 C 19.695312 -4.628906 19.507812 -4.632812 19.34375 -4.6875 C 19.1875 -4.75 19.050781 -4.875 18.9375 -5.0625 C 18.820312 -5.21875 18.734375 -5.296875 18.671875 -5.296875 C 18.609375 -5.304688 18.566406 -5.226562 18.546875 -5.0625 C 18.265625 -3.21875 17.519531 -1.53125 16.3125 0 C 15.101562 1.519531 13.492188 2.410156 11.484375 2.671875 C 11.066406 2.597656 10.789062 2.382812 10.65625 2.03125 C 10.53125 1.675781 10.675781 1.472656 11.09375 1.421875 C 11.582031 1.328125 12.003906 1.140625 12.359375 0.859375 C 12.722656 0.585938 13.132812 0.222656 13.59375 -0.234375 C 13.726562 -0.398438 13.785156 -0.546875 13.765625 -0.671875 C 13.742188 -0.796875 13.664062 -0.929688 13.53125 -1.078125 L 11.78125 -3.40625 C 11.6875 -3.5625 11.660156 -3.675781 11.703125 -3.75 C 11.753906 -3.832031 11.875 -3.875 12.0625 -3.875 L 12.96875 -3.875 C 13.269531 -3.757812 13.484375 -3.78125 13.609375 -3.9375 C 13.734375 -4.101562 13.863281 -4.328125 14 -4.609375 C 14.03125 -4.753906 14.09375 -4.835938 14.1875 -4.859375 C 14.28125 -4.878906 14.367188 -4.816406 14.453125 -4.671875 C 14.523438 -4.347656 14.582031 -4.035156 14.625 -3.734375 C 14.675781 -3.441406 14.769531 -3.125 14.90625 -2.78125 C 14.976562 -2.632812 15.054688 -2.535156 15.140625 -2.484375 C 15.234375 -2.441406 15.34375 -2.503906 15.46875 -2.671875 C 15.90625 -3.453125 16.210938 -4.164062 16.390625 -4.8125 C 16.578125 -5.457031 16.707031 -6.1875 16.78125 -7 C 16.800781 -7.113281 16.773438 -7.1875 16.703125 -7.21875 C 16.640625 -7.257812 16.535156 -7.242188 16.390625 -7.171875 L 14.390625 -6.375 C 14.015625 -6.21875 13.796875 -6.039062 13.734375 -5.84375 C 13.679688 -5.644531 13.671875 -5.382812 13.703125 -5.0625 C 13.671875 -4.6875 13.53125 -4.445312 13.28125 -4.34375 C 13.03125 -4.238281 12.773438 -4.382812 12.515625 -4.78125 C 12.378906 -5.007812 12.257812 -5.128906 12.15625 -5.140625 C 12.050781 -5.160156 11.882812 -5.132812 11.65625 -5.0625 C 10.382812 -4.550781 9.1875 -4.097656 8.0625 -3.703125 C 6.9375 -3.316406 5.75 -2.878906 4.5 -2.390625 C 4.289062 -2.328125 4.09375 -2.304688 3.90625 -2.328125 C 3.726562 -2.347656 3.546875 -2.425781 3.359375 -2.5625 C 3.203125 -2.695312 3.128906 -2.898438 3.140625 -3.171875 C 3.148438 -3.441406 3.1875 -3.675781 3.25 -3.875 C 3.1875 -4.382812 3.320312 -4.765625 3.65625 -5.015625 C 3.988281 -5.273438 4.378906 -5.460938 4.828125 -5.578125 C 5.347656 -5.597656 5.832031 -5.664062 6.28125 -5.78125 C 6.738281 -5.90625 7.222656 -6.117188 7.734375 -6.421875 C 7.867188 -6.535156 7.945312 -6.65625 7.96875 -6.78125 C 8 -6.90625 8.015625 -7.050781 8.015625 -7.21875 C 7.960938 -7.519531 7.90625 -7.796875 7.84375 -8.046875 C 7.789062 -8.296875 7.8125 -8.550781 7.90625 -8.8125 L 7.96875 -11.953125 C 7.96875 -12.003906 7.960938 -12.066406 7.953125 -12.140625 C 7.941406 -12.222656 7.90625 -12.289062 7.84375 -12.34375 L 6.765625 -12.578125 C 6.441406 -12.578125 6.15625 -12.710938 5.90625 -12.984375 C 5.664062 -13.253906 5.554688 -13.535156 5.578125 -13.828125 C 5.765625 -14.015625 5.972656 -14.140625 6.203125 -14.203125 C 6.429688 -14.273438 6.640625 -14.335938 6.828125 -14.390625 C 7.359375 -14.660156 7.769531 -14.914062 8.0625 -15.15625 C 8.351562 -15.40625 8.507812 -15.832031 8.53125 -16.4375 C 8.476562 -16.707031 8.5 -16.988281 8.59375 -17.28125 C 8.6875 -17.570312 8.835938 -17.84375 9.046875 -18.09375 C 9.273438 -18.46875 9.535156 -18.632812 9.828125 -18.59375 C 10.117188 -18.5625 10.390625 -18.351562 10.640625 -17.96875 L 10.859375 -17.234375 C 11.160156 -17.066406 11.570312 -16.988281 12.09375 -17 C 12.625 -17.019531 13.050781 -17.15625 13.375 -17.40625 C 13.5 -17.75 13.539062 -18.085938 13.5 -18.421875 C 13.46875 -18.753906 13.367188 -19.078125 13.203125 -19.390625 C 13.046875 -19.585938 12.960938 -19.800781 12.953125 -20.03125 C 12.941406 -20.269531 13.039062 -20.4375 13.25 -20.53125 Z M 13.25 -20.53125 "/></g></g></g><g fill="#000000" fill-opacity="1"><g transform="translate(296.496521, 331.205279)"><g><path d="M 20.3125 -11.375 C 20.6875 -11.550781 21.066406 -11.597656 21.453125 -11.515625 C 21.847656 -11.441406 22.222656 -11.394531 22.578125 -11.375 L 24.6875 -10.578125 C 25.21875 -10.140625 25.425781 -9.726562 25.3125 -9.34375 C 25.195312 -8.957031 24.835938 -8.664062 24.234375 -8.46875 C 23.910156 -8.414062 23.613281 -8.382812 23.34375 -8.375 C 23.082031 -8.363281 22.8125 -8.359375 22.53125 -8.359375 C 22.144531 -8.285156 21.796875 -8.207031 21.484375 -8.125 C 21.171875 -8.039062 20.835938 -7.988281 20.484375 -7.96875 C 20.285156 -7.96875 20.113281 -8.039062 19.96875 -8.1875 C 19.832031 -8.34375 19.660156 -8.4375 19.453125 -8.46875 L 19.109375 -8.359375 C 17.160156 -7.941406 15.300781 -7.546875 13.53125 -7.171875 C 11.769531 -6.804688 9.894531 -6.425781 7.90625 -6.03125 C 7.113281 -5.9375 6.335938 -6.09375 5.578125 -6.5 C 4.816406 -6.90625 4.25 -7.601562 3.875 -8.59375 C 3.757812 -9.0625 3.863281 -9.394531 4.1875 -9.59375 C 4.519531 -9.789062 4.890625 -9.738281 5.296875 -9.4375 C 5.441406 -9.25 5.585938 -9.164062 5.734375 -9.1875 C 5.890625 -9.207031 6.046875 -9.234375 6.203125 -9.265625 C 7.679688 -9.378906 9.082031 -9.5 10.40625 -9.625 C 11.738281 -9.75 13.160156 -9.9375 14.671875 -10.1875 C 15.597656 -10.375 16.492188 -10.566406 17.359375 -10.765625 C 18.222656 -10.960938 19.128906 -11.128906 20.078125 -11.265625 Z M 20.3125 -11.375 "/></g></g></g><g fill="#000000" fill-opacity="1"><g transform="translate(327.867848, 329.398907)"><g><path d="M 17.9375 -5.15625 C 17.445312 -5.050781 16.820312 -4.882812 16.0625 -4.65625 C 15.300781 -4.4375 14.535156 -4.117188 13.765625 -3.703125 C 13.273438 -3.441406 13.160156 -3.15625 13.421875 -2.84375 C 13.691406 -2.53125 14.023438 -2.421875 14.421875 -2.515625 L 15.8125 -3.046875 C 16.207031 -3.203125 16.644531 -3.257812 17.125 -3.21875 C 17.613281 -3.1875 18.101562 -3.109375 18.59375 -2.984375 C 18.90625 -2.890625 19.050781 -2.738281 19.03125 -2.53125 C 19.019531 -2.320312 18.875 -2.117188 18.59375 -1.921875 C 17.84375 -1.679688 17.109375 -1.445312 16.390625 -1.21875 C 15.671875 -1 14.992188 -0.523438 14.359375 0.203125 C 14.160156 0.421875 14.085938 0.617188 14.140625 0.796875 C 14.191406 0.972656 14.351562 1.0625 14.625 1.0625 C 14.976562 1.039062 15.328125 0.972656 15.671875 0.859375 C 16.023438 0.742188 16.40625 0.613281 16.8125 0.46875 C 17.03125 0.269531 17.238281 0.191406 17.4375 0.234375 C 17.632812 0.273438 17.84375 0.304688 18.0625 0.328125 C 18.457031 0.460938 18.804688 0.394531 19.109375 0.125 C 19.421875 -0.132812 19.601562 -0.484375 19.65625 -0.921875 L 19.3125 -4.765625 C 19.207031 -5.046875 19.070312 -5.210938 18.90625 -5.265625 C 18.738281 -5.328125 18.414062 -5.289062 17.9375 -5.15625 Z M 18 -7.015625 C 18.789062 -7.054688 19.519531 -7.015625 20.1875 -6.890625 C 20.863281 -6.773438 21.585938 -6.304688 22.359375 -5.484375 L 22.359375 -3.765625 C 22.316406 -2.535156 22.296875 -1.347656 22.296875 -0.203125 C 22.296875 0.941406 22.207031 2.15625 22.03125 3.4375 C 21.945312 3.75 21.820312 3.957031 21.65625 4.0625 C 21.488281 4.175781 21.238281 4.164062 20.90625 4.03125 C 20.59375 3.75 20.328125 3.515625 20.109375 3.328125 C 19.890625 3.140625 19.738281 2.867188 19.65625 2.515625 C 19.476562 2.253906 19.3125 2.097656 19.15625 2.046875 C 19 2.003906 18.8125 2.03125 18.59375 2.125 C 17.726562 2.34375 16.921875 2.519531 16.171875 2.65625 C 15.421875 2.800781 14.617188 2.992188 13.765625 3.234375 C 13.035156 3.546875 12.441406 3.523438 11.984375 3.171875 C 11.535156 2.816406 11.070312 2.289062 10.59375 1.59375 C 10.320312 1.21875 10.164062 0.867188 10.125 0.546875 C 10.082031 0.222656 10.082031 -0.113281 10.125 -0.46875 C 10.164062 -1.144531 10.238281 -1.78125 10.34375 -2.375 C 10.457031 -2.976562 10.539062 -3.597656 10.59375 -4.234375 C 10.71875 -4.765625 10.929688 -5.078125 11.234375 -5.171875 C 11.546875 -5.273438 11.859375 -5.117188 12.171875 -4.703125 L 12.4375 -4.5625 L 16.203125 -6.09375 C 16.515625 -6.289062 16.8125 -6.472656 17.09375 -6.640625 C 17.382812 -6.816406 17.6875 -6.941406 18 -7.015625 Z M 14.21875 -9.0625 C 14.59375 -9.125 14.804688 -9.265625 14.859375 -9.484375 C 14.921875 -9.710938 14.863281 -9.96875 14.6875 -10.25 Z M 14.03125 -9 C 13.601562 -9.082031 13.265625 -9.398438 13.015625 -9.953125 C 12.765625 -10.503906 12.570312 -10.628906 12.4375 -10.328125 L 12.5 -9.71875 C 12.5 -9.101562 12.585938 -8.660156 12.765625 -8.390625 C 12.941406 -8.128906 13.363281 -8.332031 14.03125 -9 Z M 18.53125 -10.984375 C 18.394531 -10.984375 18.273438 -10.9375 18.171875 -10.84375 C 18.078125 -10.757812 18 -10.648438 17.9375 -10.515625 L 17.140625 -9.59375 C 17.003906 -9.394531 16.988281 -9.28125 17.09375 -9.25 C 17.207031 -9.21875 17.351562 -9.203125 17.53125 -9.203125 C 18.101562 -9.285156 18.5625 -9.476562 18.90625 -9.78125 C 19.25 -10.09375 19.125 -10.492188 18.53125 -10.984375 Z M 14.484375 -10.78125 C 14.734375 -11.019531 14.882812 -11.351562 14.9375 -11.78125 C 14.988281 -12.21875 14.796875 -12.347656 14.359375 -12.171875 L 13.5 -11.703125 C 13.226562 -11.304688 13.273438 -11.085938 13.640625 -11.046875 C 14.003906 -11.003906 14.285156 -10.914062 14.484375 -10.78125 Z M 17.671875 -13.625 C 17.359375 -13.539062 17.21875 -13.363281 17.25 -13.09375 C 17.28125 -12.832031 17.394531 -12.632812 17.59375 -12.5 C 17.820312 -12.65625 17.957031 -12.898438 18 -13.234375 C 18.039062 -13.566406 17.929688 -13.695312 17.671875 -13.625 Z M 19.390625 -14.359375 C 19.117188 -14.359375 18.921875 -14.285156 18.796875 -14.140625 C 18.679688 -13.992188 18.722656 -13.800781 18.921875 -13.5625 C 19.035156 -13.34375 19.085938 -13.160156 19.078125 -13.015625 C 19.066406 -12.867188 19.035156 -12.695312 18.984375 -12.5 C 18.878906 -12.144531 18.953125 -11.90625 19.203125 -11.78125 C 19.453125 -11.664062 19.691406 -11.773438 19.921875 -12.109375 C 20.085938 -12.617188 20.207031 -13.128906 20.28125 -13.640625 C 20.363281 -14.160156 20.066406 -14.398438 19.390625 -14.359375 Z M 14.890625 -24.40625 C 15.066406 -24.539062 15.257812 -24.609375 15.46875 -24.609375 C 15.675781 -24.609375 15.878906 -24.566406 16.078125 -24.484375 C 16.253906 -24.367188 16.398438 -24.242188 16.515625 -24.109375 C 16.640625 -23.984375 16.757812 -23.820312 16.875 -23.625 C 17.582031 -22.800781 18.273438 -22.039062 18.953125 -21.34375 C 19.640625 -20.65625 20.378906 -19.9375 21.171875 -19.1875 C 21.785156 -18.726562 22.367188 -18.316406 22.921875 -17.953125 C 23.472656 -17.585938 24.082031 -17.179688 24.75 -16.734375 C 25.78125 -16.359375 26.753906 -16.125 27.671875 -16.03125 C 28.585938 -15.945312 29.578125 -15.566406 30.640625 -14.890625 C 30.984375 -14.671875 31.160156 -14.410156 31.171875 -14.109375 C 31.191406 -13.804688 30.96875 -13.625 30.5 -13.5625 C 29.726562 -13.445312 28.992188 -13.394531 28.296875 -13.40625 C 27.609375 -13.425781 26.863281 -13.4375 26.0625 -13.4375 C 25.050781 -13.695312 24.066406 -14.25 23.109375 -15.09375 C 22.148438 -15.945312 21.148438 -16.78125 20.109375 -17.59375 C 19.710938 -17.988281 19.363281 -18.394531 19.0625 -18.8125 C 18.769531 -19.238281 18.414062 -19.648438 18 -20.046875 C 17.550781 -20.535156 17.1875 -20.800781 16.90625 -20.84375 C 16.632812 -20.882812 16.269531 -20.726562 15.8125 -20.375 C 15.519531 -20.195312 15.25 -19.96875 15 -19.6875 C 14.75 -19.414062 14.488281 -19.117188 14.21875 -18.796875 C 13.78125 -18.441406 13.414062 -18.144531 13.125 -17.90625 C 12.84375 -17.675781 12.570312 -17.394531 12.3125 -17.0625 C 12.21875 -17.019531 12.164062 -16.953125 12.15625 -16.859375 C 12.144531 -16.773438 12.21875 -16.757812 12.375 -16.8125 C 12.925781 -17.070312 13.441406 -17.300781 13.921875 -17.5 C 14.410156 -17.695312 14.953125 -17.882812 15.546875 -18.0625 C 16.253906 -18.457031 16.890625 -18.582031 17.453125 -18.4375 C 18.015625 -18.300781 18.660156 -18.109375 19.390625 -17.859375 C 19.671875 -17.679688 19.804688 -17.453125 19.796875 -17.171875 C 19.785156 -16.898438 19.648438 -16.664062 19.390625 -16.46875 C 18.898438 -16.269531 18.453125 -16.078125 18.046875 -15.890625 C 17.640625 -15.703125 17.203125 -15.566406 16.734375 -15.484375 C 16.359375 -15.328125 16.023438 -15.1875 15.734375 -15.0625 C 15.453125 -14.945312 15.125 -14.867188 14.75 -14.828125 C 14.375 -14.847656 14.007812 -14.957031 13.65625 -15.15625 C 13.3125 -15.351562 12.925781 -15.53125 12.5 -15.6875 C 12.320312 -15.882812 12.132812 -16.015625 11.9375 -16.078125 C 11.738281 -16.140625 11.550781 -16.140625 11.375 -16.078125 L 9.390625 -13.765625 C 9.265625 -13.648438 9.222656 -13.546875 9.265625 -13.453125 C 9.304688 -13.367188 9.414062 -13.363281 9.59375 -13.4375 C 9.90625 -13.539062 10.222656 -13.582031 10.546875 -13.5625 C 10.878906 -13.539062 11.15625 -13.320312 11.375 -12.90625 C 11.507812 -12.707031 11.660156 -12.59375 11.828125 -12.5625 C 11.992188 -12.539062 12.175781 -12.566406 12.375 -12.640625 C 13.28125 -12.992188 14.140625 -13.351562 14.953125 -13.71875 C 15.765625 -14.082031 16.644531 -14.472656 17.59375 -14.890625 C 18.632812 -15.390625 19.535156 -15.570312 20.296875 -15.4375 C 21.054688 -15.3125 21.988281 -14.84375 23.09375 -14.03125 C 23.46875 -13.78125 23.648438 -13.492188 23.640625 -13.171875 C 23.628906 -12.859375 23.535156 -12.523438 23.359375 -12.171875 C 22.804688 -11.554688 22.335938 -10.90625 21.953125 -10.21875 C 21.566406 -9.539062 21.085938 -8.890625 20.515625 -8.265625 L 19.78125 -8.265625 C 18.375 -7.984375 17.019531 -7.632812 15.71875 -7.21875 C 14.414062 -6.8125 13.035156 -6.347656 11.578125 -5.828125 C 11.265625 -5.734375 11.019531 -5.742188 10.84375 -5.859375 C 10.675781 -5.984375 10.59375 -6.210938 10.59375 -6.546875 L 10.59375 -7.34375 C 10.238281 -7.738281 9.945312 -8.097656 9.71875 -8.421875 C 9.5 -8.742188 9.238281 -9.113281 8.9375 -9.53125 C 8.84375 -9.945312 8.789062 -10.367188 8.78125 -10.796875 C 8.769531 -11.234375 8.734375 -11.671875 8.671875 -12.109375 C 8.648438 -12.328125 8.613281 -12.457031 8.5625 -12.5 C 8.519531 -12.550781 8.398438 -12.488281 8.203125 -12.3125 L 6.6875 -10.390625 C 6.4375 -10.148438 6.191406 -9.921875 5.953125 -9.703125 C 5.710938 -9.492188 5.492188 -9.238281 5.296875 -8.9375 C 5.023438 -8.738281 4.789062 -8.609375 4.59375 -8.546875 C 4.394531 -8.492188 4.164062 -8.507812 3.90625 -8.59375 C 3.769531 -8.644531 3.628906 -8.671875 3.484375 -8.671875 C 3.347656 -8.671875 3.179688 -8.710938 2.984375 -8.796875 C 2.804688 -9.242188 2.742188 -9.734375 2.796875 -10.265625 C 2.847656 -10.804688 3.082031 -11.285156 3.5 -11.703125 C 3.90625 -11.992188 4.242188 -12.273438 4.515625 -12.546875 C 4.785156 -12.828125 5.085938 -13.1875 5.421875 -13.625 L 10.84375 -21.5 C 11.488281 -22.207031 12.140625 -22.800781 12.796875 -23.28125 C 13.460938 -23.769531 14.160156 -24.144531 14.890625 -24.40625 Z M 14.890625 -24.40625 "/></g></g></g></svg>