<svg xmlns="http://www.w3.org/2000/svg" xmlns:xlink="http://www.w3.org/1999/xlink" width="800" zoomAndPan="magnify" viewBox="0 0 600 599.999999" height="800" preserveAspectRatio="xMidYMid meet" version="1.0"><defs><g/></defs><path fill="#ffffff" d="M 233.484375 285.160156 L 233.484375 262.652344 C 233.484375 262.453125 233.375 262.355469 233.152344 262.355469 L 226.410156 262.355469 C 226.066406 262.355469 225.773438 262.234375 225.527344 261.992188 C 225.285156 261.746094 225.164062 261.453125 225.164062 261.109375 C 225.164062 260.769531 225.285156 260.476562 225.527344 260.230469 C 225.773438 259.984375 226.066406 259.863281 226.410156 259.863281 L 243.457031 259.863281 C 243.796875 259.863281 244.09375 259.984375 244.335938 260.230469 C 244.582031 260.476562 244.703125 260.769531 244.703125 261.109375 C 244.703125 261.453125 244.582031 261.746094 244.335938 261.992188 C 244.09375 262.234375 243.796875 262.355469 243.457031 262.355469 L 236.710938 262.355469 C 236.515625 262.355469 236.417969 262.453125 236.417969 262.652344 L 236.417969 285.160156 C 236.417969 285.550781 236.277344 285.894531 235.996094 286.1875 C 235.714844 286.480469 235.367188 286.625 234.949219 286.625 C 234.535156 286.625 234.1875 286.480469 233.90625 286.1875 C 233.625 285.894531 233.484375 285.550781 233.484375 285.160156 Z M 233.484375 285.160156 " fill-opacity="1" fill-rule="nonzero"/><path fill="#ffffff" d="M 255.589844 269.359375 C 253.804688 269.359375 252.375 269.914062 251.296875 271.027344 C 250.222656 272.140625 249.636719 273.699219 249.539062 275.703125 C 249.539062 275.898438 249.636719 275.996094 249.832031 275.996094 L 260.976562 275.996094 C 261.171875 275.996094 261.269531 275.898438 261.269531 275.703125 C 261.171875 273.671875 260.632812 272.109375 259.65625 271.007812 C 258.679688 269.910156 257.324219 269.359375 255.589844 269.359375 Z M 255.957031 286.992188 C 253.21875 286.992188 251.003906 286.101562 249.320312 284.316406 C 247.632812 282.53125 246.792969 280.125 246.792969 277.09375 C 246.792969 274.015625 247.578125 271.597656 249.152344 269.839844 C 250.730469 268.078125 252.875 267.195312 255.589844 267.195312 C 258.082031 267.195312 260.046875 267.953125 261.488281 269.46875 C 262.933594 270.984375 263.726562 273.171875 263.875 276.03125 C 263.898438 276.617188 263.703125 277.113281 263.285156 277.515625 C 262.871094 277.921875 262.371094 278.121094 261.785156 278.121094 L 249.832031 278.121094 C 249.636719 278.121094 249.539062 278.21875 249.539062 278.414062 C 249.636719 280.394531 250.292969 281.957031 251.503906 283.109375 C 252.710938 284.257812 254.28125 284.828125 256.210938 284.828125 C 257.898438 284.828125 259.4375 284.511719 260.832031 283.878906 C 261.101562 283.757812 261.367188 283.75 261.636719 283.859375 C 261.90625 283.96875 262.089844 284.160156 262.1875 284.425781 C 262.285156 284.71875 262.273438 285.011719 262.152344 285.304688 C 262.03125 285.597656 261.820312 285.808594 261.527344 285.929688 C 259.867188 286.636719 258.007812 286.992188 255.957031 286.992188 Z M 255.957031 286.992188 " fill-opacity="1" fill-rule="nonzero"/><path fill="#ffffff" d="M 276.484375 276.582031 C 273.917969 276.582031 271.929688 277.015625 270.523438 277.886719 C 269.121094 278.75 268.421875 279.917969 268.421875 281.382812 C 268.421875 282.484375 268.761719 283.347656 269.445312 283.96875 C 270.128906 284.59375 271.046875 284.90625 272.195312 284.90625 C 273.878906 284.90625 275.339844 284.300781 276.574219 283.089844 C 277.808594 281.878906 278.429688 280.394531 278.429688 278.632812 L 278.429688 276.910156 C 278.429688 276.691406 278.316406 276.582031 278.097656 276.582031 Z M 271.570312 286.992188 C 269.8125 286.992188 268.40625 286.496094 267.355469 285.507812 C 266.304688 284.519531 265.777344 283.179688 265.777344 281.492188 C 265.777344 279.367188 266.707031 277.675781 268.5625 276.417969 C 270.421875 275.15625 273.0625 274.527344 276.484375 274.527344 L 278.097656 274.527344 C 278.316406 274.527344 278.429688 274.429688 278.429688 274.234375 C 278.402344 272.425781 278.039062 271.167969 277.34375 270.457031 C 276.648438 269.75 275.421875 269.394531 273.660156 269.394531 C 271.851562 269.394531 270.042969 269.785156 268.234375 270.570312 C 267.964844 270.691406 267.703125 270.691406 267.445312 270.570312 C 267.191406 270.449219 267.039062 270.25 266.988281 269.980469 C 266.914062 269.664062 266.949219 269.351562 267.097656 269.046875 C 267.242188 268.742188 267.464844 268.527344 267.757812 268.40625 C 269.640625 267.601562 271.609375 267.195312 273.660156 267.195312 C 276.328125 267.195312 278.234375 267.746094 279.382812 268.847656 C 280.527344 269.945312 281.101562 271.753906 281.101562 274.269531 L 281.101562 281.492188 C 281.101562 282.765625 281.210938 284.050781 281.433594 285.34375 C 281.480469 285.6875 281.398438 285.984375 281.179688 286.242188 C 280.957031 286.5 280.6875 286.625 280.371094 286.625 C 279.980469 286.625 279.644531 286.503906 279.363281 286.261719 C 279.082031 286.015625 278.914062 285.710938 278.867188 285.34375 C 278.816406 284.878906 278.769531 284.207031 278.722656 283.328125 C 278.722656 283.277344 278.707031 283.253906 278.683594 283.253906 C 278.636719 283.253906 278.609375 283.277344 278.609375 283.328125 C 277.925781 284.476562 276.96875 285.375 275.734375 286.023438 C 274.5 286.667969 273.113281 286.992188 271.570312 286.992188 Z M 271.570312 286.992188 " fill-opacity="1" fill-rule="nonzero"/><path fill="#ffffff" d="M 289.277344 260.558594 L 289.277344 261.734375 C 289.277344 262.125 289.140625 262.460938 288.871094 262.742188 C 288.601562 263.023438 288.273438 263.164062 287.882812 263.164062 C 287.492188 263.164062 287.15625 263.023438 286.875 262.742188 C 286.59375 262.460938 286.453125 262.125 286.453125 261.734375 L 286.453125 260.558594 C 286.453125 260.167969 286.59375 259.832031 286.875 259.550781 C 287.15625 259.269531 287.492188 259.128906 287.882812 259.128906 C 288.273438 259.128906 288.601562 259.269531 288.871094 259.550781 C 289.140625 259.832031 289.277344 260.167969 289.277344 260.558594 Z M 289.277344 268.992188 L 289.277344 285.199219 C 289.277344 285.585938 289.140625 285.921875 288.871094 286.203125 C 288.601562 286.484375 288.273438 286.625 287.882812 286.625 C 287.492188 286.625 287.15625 286.484375 286.875 286.203125 C 286.59375 285.921875 286.453125 285.585938 286.453125 285.199219 L 286.453125 268.992188 C 286.453125 268.601562 286.59375 268.265625 286.875 267.984375 C 287.15625 267.703125 287.492188 267.5625 287.882812 267.5625 C 288.273438 267.5625 288.601562 267.703125 288.871094 267.984375 C 289.140625 268.265625 289.277344 268.601562 289.277344 268.992188 Z M 289.277344 268.992188 " fill-opacity="1" fill-rule="nonzero"/><path fill="#ffffff" d="M 300.972656 284.792969 C 302.390625 284.792969 303.476562 284.519531 304.234375 283.96875 C 304.992188 283.417969 305.371094 282.632812 305.371094 281.605469 C 305.371094 280.625 305.035156 279.867188 304.363281 279.332031 C 303.691406 278.792969 302.511719 278.378906 300.824219 278.085938 C 298.382812 277.644531 296.621094 276.964844 295.546875 276.050781 C 294.46875 275.132812 293.929688 273.894531 293.929688 272.328125 C 293.929688 270.765625 294.546875 269.515625 295.78125 268.589844 C 297.015625 267.660156 298.746094 267.195312 300.972656 267.195312 C 302.902344 267.195312 304.710938 267.539062 306.398438 268.222656 C 306.691406 268.347656 306.90625 268.554688 307.054688 268.847656 C 307.203125 269.140625 307.226562 269.445312 307.128906 269.761719 C 307.058594 270.03125 306.890625 270.234375 306.636719 270.367188 C 306.378906 270.503906 306.117188 270.507812 305.847656 270.386719 C 304.28125 269.726562 302.65625 269.394531 300.972656 269.394531 C 299.554688 269.394531 298.472656 269.652344 297.726562 270.164062 C 296.980469 270.679688 296.609375 271.398438 296.609375 272.328125 C 296.609375 273.207031 296.933594 273.902344 297.578125 274.417969 C 298.226562 274.929688 299.40625 275.332031 301.117188 275.625 C 303.609375 276.042969 305.398438 276.730469 306.488281 277.679688 C 307.574219 278.632812 308.121094 279.941406 308.121094 281.605469 C 308.121094 283.265625 307.488281 284.578125 306.230469 285.546875 C 304.972656 286.511719 303.21875 286.992188 300.972656 286.992188 C 298.746094 286.992188 296.742188 286.566406 294.957031 285.710938 C 294.664062 285.5625 294.445312 285.328125 294.296875 285.011719 C 294.148438 284.695312 294.125 284.378906 294.222656 284.058594 C 294.296875 283.789062 294.46875 283.601562 294.738281 283.492188 C 295.007812 283.382812 295.265625 283.386719 295.507812 283.507812 C 297.269531 284.367188 299.089844 284.792969 300.972656 284.792969 Z M 300.972656 284.792969 " fill-opacity="1" fill-rule="nonzero"/><path fill="#ffffff" d="M 313.949219 275.921875 L 313.949219 285.269531 C 313.949219 285.636719 313.820312 285.957031 313.5625 286.226562 C 313.304688 286.492188 312.996094 286.625 312.628906 286.625 C 312.257812 286.625 311.941406 286.492188 311.671875 286.226562 C 311.402344 285.957031 311.269531 285.636719 311.269531 285.269531 L 311.269531 268.847656 C 311.269531 268.503906 311.398438 268.203125 311.652344 267.949219 C 311.910156 267.691406 312.210938 267.5625 312.550781 267.5625 C 312.894531 267.5625 313.199219 267.691406 313.46875 267.949219 C 313.738281 268.203125 313.875 268.503906 313.875 268.847656 L 313.875 270.679688 C 313.875 270.703125 313.886719 270.714844 313.910156 270.714844 C 313.960938 270.714844 313.984375 270.691406 313.984375 270.640625 C 315.378906 268.34375 317.039062 267.195312 318.96875 267.195312 C 321.390625 267.195312 323.089844 268.394531 324.066406 270.789062 C 324.066406 270.835938 324.089844 270.863281 324.140625 270.863281 C 324.1875 270.863281 324.214844 270.835938 324.214844 270.789062 C 325.507812 268.394531 327.339844 267.195312 329.710938 267.195312 C 331.691406 267.195312 333.144531 267.777344 334.074219 268.941406 C 335.003906 270.101562 335.46875 271.960938 335.46875 274.527344 L 335.46875 285.304688 C 335.46875 285.671875 335.339844 285.984375 335.082031 286.242188 C 334.828125 286.5 334.515625 286.625 334.148438 286.625 C 333.78125 286.625 333.472656 286.5 333.214844 286.242188 C 332.957031 285.984375 332.828125 285.671875 332.828125 285.304688 L 332.828125 275.261719 C 332.828125 273.039062 332.546875 271.503906 331.984375 270.660156 C 331.421875 269.816406 330.46875 269.394531 329.125 269.394531 C 327.953125 269.394531 326.925781 269.980469 326.042969 271.15625 C 325.164062 272.328125 324.726562 273.757812 324.726562 275.445312 L 324.726562 285.304688 C 324.726562 285.671875 324.597656 285.984375 324.339844 286.242188 C 324.082031 286.5 323.773438 286.625 323.40625 286.625 C 323.039062 286.625 322.730469 286.5 322.472656 286.242188 C 322.214844 285.984375 322.085938 285.671875 322.085938 285.304688 L 322.085938 275.261719 C 322.085938 273.0625 321.800781 271.535156 321.226562 270.679688 C 320.648438 269.824219 319.691406 269.394531 318.347656 269.394531 C 317.246094 269.394531 316.238281 270.035156 315.324219 271.320312 C 314.40625 272.605469 313.949219 274.136719 313.949219 275.921875 Z M 313.949219 275.921875 " fill-opacity="1" fill-rule="nonzero"/><path fill="#ffffff" d="M 341.882812 275.921875 L 341.882812 285.269531 C 341.882812 285.636719 341.753906 285.957031 341.496094 286.226562 C 341.238281 286.492188 340.925781 286.625 340.558594 286.625 C 340.191406 286.625 339.875 286.492188 339.605469 286.226562 C 339.335938 285.957031 339.203125 285.636719 339.203125 285.269531 L 339.203125 268.847656 C 339.203125 268.503906 339.332031 268.203125 339.585938 267.949219 C 339.84375 267.691406 340.144531 267.5625 340.484375 267.5625 C 340.828125 267.5625 341.132812 267.691406 341.402344 267.949219 C 341.671875 268.203125 341.804688 268.503906 341.804688 268.847656 L 341.804688 270.679688 C 341.804688 270.703125 341.820312 270.714844 341.84375 270.714844 C 341.894531 270.714844 341.917969 270.691406 341.917969 270.640625 C 343.308594 268.34375 344.972656 267.195312 346.902344 267.195312 C 349.324219 267.195312 351.023438 268.394531 352 270.789062 C 352 270.835938 352.023438 270.863281 352.074219 270.863281 C 352.121094 270.863281 352.148438 270.835938 352.148438 270.789062 C 353.441406 268.394531 355.273438 267.195312 357.644531 267.195312 C 359.625 267.195312 361.078125 267.777344 362.007812 268.941406 C 362.9375 270.101562 363.402344 271.960938 363.402344 274.527344 L 363.402344 285.304688 C 363.402344 285.671875 363.273438 285.984375 363.015625 286.242188 C 362.757812 286.5 362.449219 286.625 362.082031 286.625 C 361.714844 286.625 361.402344 286.5 361.148438 286.242188 C 360.890625 285.984375 360.761719 285.671875 360.761719 285.304688 L 360.761719 275.261719 C 360.761719 273.039062 360.480469 271.503906 359.914062 270.660156 C 359.355469 269.816406 358.402344 269.394531 357.058594 269.394531 C 355.886719 269.394531 354.859375 269.980469 353.976562 271.15625 C 353.097656 272.328125 352.660156 273.757812 352.660156 275.445312 L 352.660156 285.304688 C 352.660156 285.671875 352.53125 285.984375 352.273438 286.242188 C 352.015625 286.5 351.707031 286.625 351.339844 286.625 C 350.972656 286.625 350.660156 286.5 350.40625 286.242188 C 350.148438 285.984375 350.019531 285.671875 350.019531 285.304688 L 350.019531 275.261719 C 350.019531 273.0625 349.734375 271.535156 349.160156 270.679688 C 348.582031 269.824219 347.625 269.394531 346.28125 269.394531 C 345.179688 269.394531 344.171875 270.035156 343.253906 271.320312 C 342.339844 272.605469 341.882812 274.136719 341.882812 275.921875 Z M 341.882812 275.921875 " fill-opacity="1" fill-rule="nonzero"/><g fill="#ffffff" fill-opacity="1"><g transform="translate(232.700395, 328.707951)"><g><path d="M 29.625 -11.15625 C 29.582031 -11.019531 29.476562 -10.859375 29.3125 -10.671875 C 29.15625 -10.484375 29.007812 -10.390625 28.875 -10.390625 C 28.832031 -10.390625 28.800781 -10.394531 28.78125 -10.40625 C 28.625 -10.425781 28.335938 -10.488281 27.921875 -10.59375 C 27.515625 -10.707031 27.203125 -10.765625 26.984375 -10.765625 C 26.710938 -10.765625 26.175781 -10.5 25.375 -9.96875 C 24.375 -9.289062 23.804688 -8.921875 23.671875 -8.859375 C 22.609375 -8.335938 21.390625 -7.988281 20.015625 -7.8125 C 22.671875 -9.050781 24.445312 -10.414062 25.34375 -11.90625 C 25 -12.25 24.53125 -12.445312 23.9375 -12.5 C 23.800781 -12.519531 23.273438 -12.53125 22.359375 -12.53125 C 20.898438 -12.53125 19.75 -12.363281 18.90625 -12.03125 C 17.894531 -11.613281 16.890625 -11.203125 15.890625 -10.796875 C 14.671875 -10.460938 12.84375 -9.957031 10.40625 -9.28125 C 10.050781 -9.132812 9.484375 -8.953125 8.703125 -8.734375 C 8.609375 -8.710938 8.160156 -8.703125 7.359375 -8.703125 C 6.796875 -8.703125 6.394531 -8.613281 6.15625 -8.4375 C 6.28125 -8.257812 6.351562 -8.03125 6.375 -7.75 C 6.375 -7.507812 6.375 -7.269531 6.375 -7.03125 L 6.28125 -7.03125 C 6.21875 -6.96875 6.066406 -6.9375 5.828125 -6.9375 C 5.691406 -6.9375 5.472656 -6.921875 5.171875 -6.890625 C 4.878906 -6.867188 4.660156 -6.859375 4.515625 -6.859375 C 3.773438 -6.859375 3.113281 -7.125 2.53125 -7.65625 C 1.957031 -8.195312 1.671875 -8.835938 1.671875 -9.578125 C 1.671875 -9.710938 1.679688 -9.851562 1.703125 -10 C 1.679688 -10.113281 1.671875 -10.222656 1.671875 -10.328125 C 1.671875 -11.140625 2.160156 -11.71875 3.140625 -12.0625 C 3.640625 -12.21875 4.296875 -12.347656 5.109375 -12.453125 C 6.191406 -12.585938 6.863281 -12.6875 7.125 -12.75 C 9.195312 -13.25 11.28125 -13.75 13.375 -14.25 C 15.75 -14.820312 17.90625 -15.109375 19.84375 -15.109375 C 22.789062 -15.109375 24.820312 -14.691406 25.9375 -13.859375 C 26.0625 -13.910156 26.265625 -13.957031 26.546875 -14 C 26.816406 -13.882812 27.101562 -13.6875 27.40625 -13.40625 C 27.789062 -13.039062 28.0625 -12.8125 28.21875 -12.71875 C 28.695312 -12.394531 28.984375 -12.1875 29.078125 -12.09375 C 29.378906 -11.8125 29.5625 -11.5 29.625 -11.15625 Z M 29.625 -11.15625 "/></g></g></g><g fill="#ffffff" fill-opacity="1"><g transform="translate(263.34276, 328.707951)"><g><path d="M 29.109375 -22.859375 C 29.109375 -22.503906 29.039062 -22.164062 28.90625 -21.84375 L 28.71875 -21.90625 L 28.34375 -21.6875 L 28.1875 -21.6875 C 27.84375 -21.375 27.59375 -21 27.4375 -20.5625 C 26.863281 -19.039062 26.328125 -16.445312 25.828125 -12.78125 C 25.765625 -12.414062 25.742188 -11.957031 25.765625 -11.40625 C 25.804688 -10.5625 25.828125 -10.101562 25.828125 -10.03125 C 25.828125 -9.945312 25.816406 -9.820312 25.796875 -9.65625 C 25.773438 -9.5 25.765625 -9.382812 25.765625 -9.3125 C 25.765625 -9.09375 25.878906 -8.875 26.109375 -8.65625 C 26.335938 -8.445312 26.453125 -8.253906 26.453125 -8.078125 C 26.453125 -7.972656 26.394531 -7.847656 26.28125 -7.703125 C 26.175781 -7.554688 26.125 -7.429688 26.125 -7.328125 C 26.125 -7.285156 26.144531 -7.226562 26.1875 -7.15625 C 26.257812 -6.195312 26.707031 -4.75 27.53125 -2.8125 C 28.289062 -0.976562 28.671875 0.445312 28.671875 1.46875 C 28.671875 1.625 28.644531 1.847656 28.59375 2.140625 C 28.539062 2.429688 28.515625 2.644531 28.515625 2.78125 C 28.316406 3.101562 28.023438 3.285156 27.640625 3.328125 C 26.328125 1.804688 24.554688 0.0976562 22.328125 -1.796875 C 22.066406 -1.648438 21.734375 -1.34375 21.328125 -0.875 C 20.910156 -0.332031 20.582031 0.015625 20.34375 0.171875 C 19.988281 0.378906 19.507812 0.703125 18.90625 1.140625 C 19.863281 0.273438 20.722656 -0.953125 21.484375 -2.546875 C 21.265625 -2.960938 20.875 -3.539062 20.3125 -4.28125 C 18.28125 -0.425781 16.1875 2.113281 14.03125 3.34375 C 13.894531 3.226562 13.828125 3.007812 13.828125 2.6875 C 13.828125 1.75 14.054688 0.820312 14.515625 -0.09375 L 14.6875 -0.09375 C 14.613281 0.3125 14.578125 0.515625 14.578125 0.515625 C 14.578125 0.753906 14.644531 0.960938 14.78125 1.140625 C 16.414062 -0.835938 17.300781 -1.914062 17.4375 -2.09375 C 18.394531 -3.375 19.085938 -4.59375 19.515625 -5.75 C 19.304688 -6.425781 19.203125 -7.082031 19.203125 -7.71875 L 19.0625 -7.84375 L 18.671875 -7.84375 C 18.566406 -7.957031 18.488281 -8.046875 18.4375 -8.109375 C 18.238281 -8.023438 17.9375 -7.984375 17.53125 -7.984375 C 17.03125 -7.960938 16.710938 -7.953125 16.578125 -7.953125 C 16.296875 -7.898438 15.785156 -7.722656 15.046875 -7.421875 C 14.453125 -7.160156 13.972656 -6.84375 13.609375 -6.46875 C 13.554688 -6.382812 13.21875 -5.929688 12.59375 -5.109375 C 12.476562 -5.234375 12.429688 -5.335938 12.453125 -5.421875 C 11.867188 -5.359375 10.988281 -4.867188 9.8125 -3.953125 C 8.757812 -3.109375 8.019531 -2.390625 7.59375 -1.796875 C 7.394531 -1.515625 7.285156 -1.195312 7.265625 -0.84375 C 7.546875 -0.84375 7.921875 -0.960938 8.390625 -1.203125 C 8.859375 -1.441406 9.210938 -1.566406 9.453125 -1.578125 L 9.640625 -1.46875 L 9.515625 -0.890625 C 8.921875 -0.429688 8.5625 0.0703125 8.4375 0.625 C 8.519531 0.789062 8.597656 1.070312 8.671875 1.46875 C 8.640625 1.5625 8.601562 1.71875 8.5625 1.9375 C 8.414062 1.976562 8.210938 2.03125 7.953125 2.09375 L 7.71875 2 C 7.382812 2.0625 7.21875 2.09375 7.21875 2.09375 C 7.007812 2.09375 6.707031 2.035156 6.3125 1.921875 C 5.914062 1.816406 5.6875 1.703125 5.625 1.578125 C 5.539062 1.328125 5.378906 0.941406 5.140625 0.421875 C 5.085938 0.335938 4.832031 0.0976562 4.375 -0.296875 C 4.050781 -0.578125 3.890625 -0.867188 3.890625 -1.171875 C 3.890625 -1.242188 3.929688 -1.332031 4.015625 -1.4375 C 4.109375 -1.550781 4.164062 -1.640625 4.1875 -1.703125 L 4.15625 -1.734375 C 3.84375 -1.734375 3.625 -1.546875 3.5 -1.171875 C 3.4375 -1.191406 3.378906 -1.203125 3.328125 -1.203125 C 3.222656 -1.203125 3.078125 -1.1875 2.890625 -1.15625 C 2.703125 -1.125 2.566406 -1.109375 2.484375 -1.109375 C 2.265625 -1.328125 1.925781 -1.644531 1.46875 -2.0625 C 1.46875 -2.820312 1.320312 -3.328125 1.03125 -3.578125 C 0.738281 -3.828125 0.59375 -4.0625 0.59375 -4.28125 C 0.59375 -4.65625 0.820312 -4.960938 1.28125 -5.203125 C 1.664062 -5.398438 2.066406 -5.5 2.484375 -5.5 C 3.179688 -5.5 3.707031 -5.367188 4.0625 -5.109375 C 4.382812 -5.273438 5.382812 -5.96875 7.0625 -7.1875 C 6.882812 -7.863281 6.679688 -8.898438 6.453125 -10.296875 C 6.222656 -11.691406 6.007812 -12.75 5.8125 -13.46875 C 5.644531 -13.382812 5.382812 -13.273438 5.03125 -13.140625 C 4.507812 -12.441406 4.019531 -12.09375 3.5625 -12.09375 C 2.707031 -12.09375 2.28125 -12.5625 2.28125 -13.5 C 2.28125 -13.71875 2.378906 -14.007812 2.578125 -14.375 C 2.773438 -14.75 2.882812 -15.035156 2.90625 -15.234375 C 2.882812 -15.523438 2.90625 -15.894531 2.96875 -16.34375 C 3.039062 -16.476562 3.21875 -16.566406 3.5 -16.609375 C 3.71875 -16.609375 3.9375 -16.617188 4.15625 -16.640625 C 4.28125 -16.898438 4.597656 -17.03125 5.109375 -17.03125 C 5.273438 -17.03125 5.425781 -16.96875 5.5625 -16.84375 C 5.582031 -16.90625 5.59375 -16.96875 5.59375 -17.03125 C 5.59375 -17.25 5.503906 -17.460938 5.328125 -17.671875 C 5.148438 -17.878906 4.953125 -17.984375 4.734375 -17.984375 C 4.648438 -18.242188 4.5 -18.632812 4.28125 -19.15625 C 4.363281 -19.707031 4.671875 -20.175781 5.203125 -20.5625 C 5.398438 -20.5625 5.71875 -20.503906 6.15625 -20.390625 C 6.601562 -20.285156 6.894531 -20.238281 7.03125 -20.25 C 7.53125 -20.289062 7.738281 -20.3125 7.65625 -20.3125 C 8.113281 -20.3125 8.625 -19.941406 9.1875 -19.203125 C 9.144531 -18.710938 9.125 -18.523438 9.125 -18.640625 C 9.125 -18.398438 9.164062 -18.179688 9.25 -17.984375 C 9.882812 -18.378906 10.789062 -18.816406 11.96875 -19.296875 C 11.945312 -19.492188 11.9375 -19.722656 11.9375 -19.984375 L 11.9375 -20.671875 C 11.9375 -21.273438 11.867188 -21.773438 11.734375 -22.171875 C 11.035156 -22.585938 10.6875 -23.316406 10.6875 -24.359375 C 10.6875 -24.597656 10.765625 -24.84375 10.921875 -25.09375 C 11.078125 -25.34375 11.265625 -25.46875 11.484375 -25.46875 C 11.585938 -25.46875 11.789062 -25.375 12.09375 -25.1875 C 12.445312 -24.945312 12.644531 -24.820312 12.6875 -24.8125 C 13.1875 -25.1875 13.742188 -25.375 14.359375 -25.375 C 15.160156 -25.375 15.757812 -24.863281 16.15625 -23.84375 C 16.113281 -23.726562 15.945312 -23.410156 15.65625 -22.890625 C 15.445312 -22.535156 15.34375 -22.207031 15.34375 -21.90625 C 15.34375 -21.800781 15.351562 -21.691406 15.375 -21.578125 L 15.265625 -21.28125 L 15.375 -21.09375 L 15.921875 -21.484375 C 16.097656 -21.441406 16.1875 -21.421875 16.1875 -21.421875 C 16.1875 -21.421875 16.425781 -21.453125 16.90625 -21.515625 C 16.96875 -21.515625 17.367188 -21.425781 18.109375 -21.25 C 18.203125 -21.144531 18.25 -20.972656 18.25 -20.734375 C 18.25 -20.160156 17.859375 -19.660156 17.078125 -19.234375 C 16.484375 -18.941406 15.878906 -18.644531 15.265625 -18.34375 C 14.941406 -17.1875 14.722656 -15.707031 14.609375 -13.90625 C 14.503906 -12.4375 14.398438 -10.953125 14.296875 -9.453125 C 14.296875 -9.453125 14.378906 -9.550781 14.546875 -9.75 L 14.84375 -9.671875 C 14.957031 -9.828125 15.097656 -9.90625 15.265625 -9.90625 C 15.335938 -9.90625 15.414062 -9.875 15.5 -9.8125 C 15.539062 -10.007812 15.660156 -10.109375 15.859375 -10.109375 C 16.179688 -10.109375 16.710938 -9.984375 17.453125 -9.734375 C 18.203125 -9.484375 18.75 -9.347656 19.09375 -9.328125 C 19.09375 -10.085938 19.332031 -11.773438 19.8125 -14.390625 C 19.945312 -15.234375 20.015625 -15.703125 20.015625 -15.796875 C 20.015625 -17.691406 19.773438 -19.359375 19.296875 -20.796875 C 19.179688 -20.796875 19.003906 -20.796875 18.765625 -20.796875 L 18.671875 -20.734375 C 18.671875 -20.859375 18.660156 -21.046875 18.640625 -21.296875 C 18.617188 -21.554688 18.609375 -21.75 18.609375 -21.875 C 18.609375 -22.226562 18.707031 -22.445312 18.90625 -22.53125 C 19.09375 -22.488281 19.269531 -22.375 19.4375 -22.1875 C 19.601562 -22 20.21875 -21.554688 21.28125 -20.859375 L 21.359375 -20.46875 C 21.203125 -20.050781 21.125 -19.519531 21.125 -18.875 C 21.125 -18.71875 21.175781 -17.632812 21.28125 -15.625 L 21.546875 -15.5 C 21.722656 -16.132812 21.8125 -17.070312 21.8125 -18.3125 C 21.8125 -18.769531 21.785156 -19.453125 21.734375 -20.359375 C 21.679688 -21.265625 21.65625 -21.945312 21.65625 -22.40625 C 21.65625 -22.832031 21.703125 -23.132812 21.796875 -23.3125 C 21.890625 -23.488281 22.054688 -23.796875 22.296875 -24.234375 C 22.710938 -25.078125 23.203125 -25.5 23.765625 -25.5 C 24.003906 -25.5 24.441406 -25.335938 25.078125 -25.015625 C 25.816406 -24.671875 26.316406 -24.472656 26.578125 -24.421875 C 26.992188 -24.492188 27.210938 -24.519531 27.234375 -24.5 C 27.523438 -24.46875 27.910156 -24.253906 28.390625 -23.859375 C 28.867188 -23.472656 29.109375 -23.140625 29.109375 -22.859375 Z M 16.15625 -2.390625 C 16.15625 -2.191406 15.796875 -1.710938 15.078125 -0.953125 C 14.117188 -1.191406 13.429688 -1.460938 13.015625 -1.765625 C 12.878906 -1.847656 12.726562 -2.023438 12.5625 -2.296875 C 11.96875 -2.742188 11.671875 -3.035156 11.671875 -3.171875 L 11.671875 -3.234375 C 11.890625 -3.410156 12.445312 -3.5 13.34375 -3.5 C 13.5 -3.65625 13.578125 -3.816406 13.578125 -3.984375 C 13.679688 -3.660156 14.148438 -3.46875 14.984375 -3.40625 C 15.765625 -3.332031 16.15625 -2.992188 16.15625 -2.390625 Z M 23.609375 -18.765625 C 23.609375 -18.898438 23.597656 -19.039062 23.578125 -19.1875 C 22.984375 -18.320312 22.492188 -17.148438 22.109375 -15.671875 C 22.828125 -15.492188 23.285156 -15.347656 23.484375 -15.234375 C 23.460938 -15.523438 23.453125 -15.742188 23.453125 -15.890625 L 23.453125 -16.3125 C 23.453125 -16.570312 23.476562 -16.972656 23.53125 -17.515625 C 23.582031 -18.066406 23.609375 -18.484375 23.609375 -18.765625 Z M 23.734375 -9.90625 C 23.671875 -10.6875 23.578125 -11.851562 23.453125 -13.40625 C 22.660156 -12.289062 22.285156 -11.363281 22.328125 -10.625 L 22.328125 -10.4375 L 22.765625 -9.8125 C 22.910156 -9.914062 23.101562 -9.96875 23.34375 -9.96875 C 23.457031 -9.96875 23.585938 -9.945312 23.734375 -9.90625 Z M 23.21875 -8.28125 C 22.4375 -8.5625 21.78125 -9.050781 21.25 -9.75 C 20.945312 -8.613281 20.726562 -7.507812 20.59375 -6.4375 C 20.863281 -5.613281 21.335938 -4.816406 22.015625 -4.046875 C 22.097656 -4.460938 22.3125 -5.160156 22.65625 -6.140625 C 22.96875 -7.035156 23.15625 -7.75 23.21875 -8.28125 Z M 26.21875 -0.6875 C 25.8125 -1.726562 25.300781 -3.296875 24.6875 -5.390625 C 23.925781 -4.671875 23.296875 -3.890625 22.796875 -3.046875 C 24.035156 -1.628906 25.175781 -0.84375 26.21875 -0.6875 Z M 11.90625 -14.546875 L 11.90625 -15.703125 C 11.90625 -15.960938 11.875 -16.273438 11.8125 -16.640625 L 8.953125 -15.140625 C 8.804688 -14.640625 8.734375 -14.222656 8.734375 -13.890625 C 8.734375 -13.765625 8.742188 -13.632812 8.765625 -13.5 C 9.347656 -14.394531 10.144531 -14.84375 11.15625 -14.84375 C 11.414062 -14.84375 11.664062 -14.742188 11.90625 -14.546875 Z M 12 -12.125 C 12 -12.363281 11.96875 -12.703125 11.90625 -13.140625 C 11.726562 -13.140625 11.46875 -13.082031 11.125 -12.96875 C 10.789062 -12.863281 10.535156 -12.8125 10.359375 -12.8125 C 9.816406 -12.8125 9.285156 -12.921875 8.765625 -13.140625 C 8.679688 -12.941406 8.640625 -12.738281 8.640625 -12.53125 C 8.640625 -12.457031 8.679688 -11.734375 8.765625 -10.359375 L 9.390625 -10.828125 C 9.410156 -10.972656 9.472656 -11.179688 9.578125 -11.453125 C 9.617188 -11.515625 9.664062 -11.554688 9.71875 -11.578125 L 10.140625 -11.40625 C 10.859375 -11.582031 11.296875 -11.671875 11.453125 -11.671875 C 11.597656 -11.671875 11.757812 -11.640625 11.9375 -11.578125 C 11.976562 -11.734375 12 -11.914062 12 -12.125 Z M 9.390625 -9.71875 L 8.796875 -10.046875 C 8.691406 -9.929688 8.640625 -9.753906 8.640625 -9.515625 C 8.640625 -9.253906 8.679688 -9.015625 8.765625 -8.796875 Z M 12.125 -8.109375 C 12.082031 -8.484375 12.019531 -9.050781 11.9375 -9.8125 C 11.613281 -9.726562 10.941406 -9.25 9.921875 -8.375 C 8.910156 -7.5 8.40625 -6.929688 8.40625 -6.671875 C 8.425781 -6.609375 8.457031 -6.550781 8.5 -6.5 C 9.695312 -7.070312 10.90625 -7.609375 12.125 -8.109375 Z M 8.5625 -3.5625 L 5.203125 -2.09375 L 5.265625 -1.96875 C 6.046875 -2.226562 6.6875 -2.332031 7.1875 -2.28125 Z M 8.5625 -3.5625 "/></g></g></g><g fill="#ffffff" fill-opacity="1"><g transform="translate(293.985126, 328.707951)"><g><path d="M 29.625 -11.15625 C 29.582031 -11.019531 29.476562 -10.859375 29.3125 -10.671875 C 29.15625 -10.484375 29.007812 -10.390625 28.875 -10.390625 C 28.832031 -10.390625 28.800781 -10.394531 28.78125 -10.40625 C 28.625 -10.425781 28.335938 -10.488281 27.921875 -10.59375 C 27.515625 -10.707031 27.203125 -10.765625 26.984375 -10.765625 C 26.710938 -10.765625 26.175781 -10.5 25.375 -9.96875 C 24.375 -9.289062 23.804688 -8.921875 23.671875 -8.859375 C 22.609375 -8.335938 21.390625 -7.988281 20.015625 -7.8125 C 22.671875 -9.050781 24.445312 -10.414062 25.34375 -11.90625 C 25 -12.25 24.53125 -12.445312 23.9375 -12.5 C 23.800781 -12.519531 23.273438 -12.53125 22.359375 -12.53125 C 20.898438 -12.53125 19.75 -12.363281 18.90625 -12.03125 C 17.894531 -11.613281 16.890625 -11.203125 15.890625 -10.796875 C 14.671875 -10.460938 12.84375 -9.957031 10.40625 -9.28125 C 10.050781 -9.132812 9.484375 -8.953125 8.703125 -8.734375 C 8.609375 -8.710938 8.160156 -8.703125 7.359375 -8.703125 C 6.796875 -8.703125 6.394531 -8.613281 6.15625 -8.4375 C 6.28125 -8.257812 6.351562 -8.03125 6.375 -7.75 C 6.375 -7.507812 6.375 -7.269531 6.375 -7.03125 L 6.28125 -7.03125 C 6.21875 -6.96875 6.066406 -6.9375 5.828125 -6.9375 C 5.691406 -6.9375 5.472656 -6.921875 5.171875 -6.890625 C 4.878906 -6.867188 4.660156 -6.859375 4.515625 -6.859375 C 3.773438 -6.859375 3.113281 -7.125 2.53125 -7.65625 C 1.957031 -8.195312 1.671875 -8.835938 1.671875 -9.578125 C 1.671875 -9.710938 1.679688 -9.851562 1.703125 -10 C 1.679688 -10.113281 1.671875 -10.222656 1.671875 -10.328125 C 1.671875 -11.140625 2.160156 -11.71875 3.140625 -12.0625 C 3.640625 -12.21875 4.296875 -12.347656 5.109375 -12.453125 C 6.191406 -12.585938 6.863281 -12.6875 7.125 -12.75 C 9.195312 -13.25 11.28125 -13.75 13.375 -14.25 C 15.75 -14.820312 17.90625 -15.109375 19.84375 -15.109375 C 22.789062 -15.109375 24.820312 -14.691406 25.9375 -13.859375 C 26.0625 -13.910156 26.265625 -13.957031 26.546875 -14 C 26.816406 -13.882812 27.101562 -13.6875 27.40625 -13.40625 C 27.789062 -13.039062 28.0625 -12.8125 28.21875 -12.71875 C 28.695312 -12.394531 28.984375 -12.1875 29.078125 -12.09375 C 29.378906 -11.8125 29.5625 -11.5 29.625 -11.15625 Z M 29.625 -11.15625 "/></g></g></g><g fill="#ffffff" fill-opacity="1"><g transform="translate(324.627491, 328.707951)"><g><path d="M 17 -14.328125 C 17 -14.085938 16.878906 -13.84375 16.640625 -13.59375 C 16.398438 -13.34375 16.160156 -13.21875 15.921875 -13.21875 C 15.753906 -13.21875 15.507812 -13.265625 15.1875 -13.359375 C 14.875 -13.453125 14.640625 -13.5 14.484375 -13.5 C 14.441406 -13.5 14.367188 -13.484375 14.265625 -13.453125 C 14.171875 -13.421875 14.101562 -13.40625 14.0625 -13.40625 C 14.039062 -13.40625 13.984375 -13.414062 13.890625 -13.4375 C 13.867188 -13.5 13.867188 -13.554688 13.890625 -13.609375 L 13.9375 -13.734375 C 14 -13.816406 14.0625 -13.867188 14.125 -13.890625 C 13.78125 -14.179688 13.429688 -14.476562 13.078125 -14.78125 C 12.597656 -15.195312 12.359375 -15.515625 12.359375 -15.734375 C 12.378906 -15.835938 12.425781 -15.929688 12.5 -16.015625 L 12.625 -16.0625 L 12.390625 -16.421875 C 12.429688 -16.398438 12.476562 -16.390625 12.53125 -16.390625 C 12.570312 -16.390625 12.671875 -16.425781 12.828125 -16.5 C 12.992188 -16.570312 13.117188 -16.609375 13.203125 -16.609375 C 13.273438 -16.609375 13.351562 -16.578125 13.4375 -16.515625 C 15.8125 -16.191406 17 -15.460938 17 -14.328125 Z M 30.15625 -8.765625 C 30.15625 -8.566406 30.097656 -8.28125 29.984375 -7.90625 C 29.660156 -7.863281 29.46875 -7.84375 29.40625 -7.84375 C 29.15625 -7.84375 28.679688 -8.101562 27.984375 -8.625 C 27.878906 -8.632812 27.765625 -8.640625 27.640625 -8.640625 C 27.085938 -8.640625 26.601562 -8.582031 26.1875 -8.46875 C 25.925781 -8.382812 25.472656 -8.34375 24.828125 -8.34375 C 24.609375 -8.34375 24.300781 -8.316406 23.90625 -8.265625 C 23.445312 -8.179688 23.140625 -8.140625 22.984375 -8.140625 C 23.117188 -8.140625 22.660156 -8.140625 21.609375 -8.140625 C 21.179688 -8.140625 20.910156 -8.085938 20.796875 -7.984375 C 21.753906 -8.421875 23.171875 -9.109375 25.046875 -10.046875 C 23.328125 -11.109375 21.941406 -12.160156 20.890625 -13.203125 C 19.710938 -14.335938 18.679688 -15.710938 17.796875 -17.328125 C 17.460938 -17.960938 16.9375 -18.910156 16.21875 -20.171875 L 14.03125 -19.625 C 13.945312 -19.707031 13.867188 -19.75 13.796875 -19.75 C 13.691406 -19.75 13.59375 -19.738281 13.5 -19.71875 C 12.195312 -18.664062 10.890625 -17.171875 9.578125 -15.234375 C 8.492188 -13.554688 7.414062 -11.878906 6.34375 -10.203125 C 4.40625 -7.273438 2.441406 -4.832031 0.453125 -2.875 L 0.296875 -2.875 C 0.398438 -3.425781 0.710938 -4.144531 1.234375 -5.03125 C 1.671875 -5.707031 2.097656 -6.394531 2.515625 -7.09375 C 3.546875 -8.945312 4.582031 -10.8125 5.625 -12.6875 C 6.863281 -14.800781 8.007812 -16.597656 9.0625 -18.078125 C 9.644531 -18.828125 10.234375 -19.582031 10.828125 -20.34375 C 11.566406 -21.34375 12.035156 -22.140625 12.234375 -22.734375 C 12.191406 -22.835938 12.144531 -22.976562 12.09375 -23.15625 C 12.289062 -24.457031 13.476562 -25.25 15.65625 -25.53125 C 15.832031 -25.289062 16.46875 -24.976562 17.5625 -24.59375 C 18.457031 -24.289062 18.90625 -23.765625 18.90625 -23.015625 C 18.90625 -22.648438 18.664062 -22.359375 18.1875 -22.140625 C 17.707031 -21.921875 17.441406 -21.753906 17.390625 -21.640625 C 17.546875 -21.160156 17.832031 -20.5 18.25 -19.65625 C 18.445312 -19.34375 18.765625 -18.984375 19.203125 -18.578125 C 19.566406 -18.242188 19.925781 -17.914062 20.28125 -17.59375 C 20.707031 -17.113281 21.378906 -16.425781 22.296875 -15.53125 C 22.910156 -14.988281 23.984375 -14.207031 25.515625 -13.1875 C 27.054688 -12.175781 28.238281 -11.453125 29.0625 -11.015625 C 29.113281 -10.828125 29.332031 -10.457031 29.71875 -9.90625 C 30.007812 -9.46875 30.15625 -9.085938 30.15625 -8.765625 Z M 23.578125 -1.734375 C 23.578125 -1.253906 23.390625 -0.828125 23.015625 -0.453125 C 23.015625 -0.253906 22.929688 -0.0546875 22.765625 0.140625 C 22.609375 0.347656 22.429688 0.453125 22.234375 0.453125 C 22.210938 0.453125 22.0625 0.421875 21.78125 0.359375 C 19.09375 1.710938 16.488281 2.5625 13.96875 2.90625 C 14.875 2.363281 15.59375 2.023438 16.125 1.890625 C 16.488281 1.804688 17.03125 1.65625 17.75 1.4375 C 18.476562 1.132812 19.492188 0.335938 20.796875 -0.953125 C 20.253906 -2.492188 19.675781 -3.570312 19.0625 -4.1875 C 19.0625 -4.03125 19.082031 -3.785156 19.125 -3.453125 C 19.175781 -3.128906 19.203125 -2.875 19.203125 -2.6875 C 18.503906 -1.96875 17.269531 -1.289062 15.5 -0.65625 C 15.457031 -0.632812 14.0625 -0.207031 11.3125 0.625 C 10.8125 1.40625 10.441406 1.796875 10.203125 1.796875 C 9.859375 1.796875 9.535156 1.648438 9.234375 1.359375 C 8.941406 1.066406 8.796875 0.753906 8.796875 0.421875 C 8.796875 -0.0351562 8.925781 -0.523438 9.1875 -1.046875 C 8.882812 -1.546875 8.734375 -1.972656 8.734375 -2.328125 C 8.734375 -3.304688 9.441406 -3.71875 10.859375 -3.5625 C 11.253906 -4.019531 11.929688 -4.859375 12.890625 -6.078125 C 12.453125 -5.898438 11.632812 -5.457031 10.4375 -4.75 C 9.425781 -4.175781 8.582031 -3.789062 7.90625 -3.59375 C 7.082031 -3.8125 6.363281 -4.695312 5.75 -6.25 C 5.75 -6.570312 5.882812 -6.820312 6.15625 -7 C 6.21875 -6.9375 6.398438 -6.875 6.703125 -6.8125 C 7.003906 -6.757812 7.203125 -6.632812 7.296875 -6.4375 C 8.378906 -6.769531 9.628906 -7.367188 11.046875 -8.234375 C 12.203125 -8.960938 13.367188 -9.695312 14.546875 -10.4375 L 14.546875 -10.5 C 14.523438 -10.863281 14.785156 -11.210938 15.328125 -11.546875 L 15.375 -11.546875 C 15.414062 -11.503906 15.507812 -11.457031 15.65625 -11.40625 C 15.875 -11.601562 16.082031 -11.691406 16.28125 -11.671875 C 16.394531 -11.585938 16.992188 -11.4375 18.078125 -11.21875 C 18.816406 -11.082031 19.242188 -10.722656 19.359375 -10.140625 C 19.097656 -9.835938 18.816406 -9.628906 18.515625 -9.515625 C 16.523438 -6.503906 14.394531 -4.03125 12.125 -2.09375 L 12.484375 -1.96875 C 13.078125 -2.03125 13.894531 -2.222656 14.9375 -2.546875 C 16.132812 -2.921875 16.851562 -3.273438 17.09375 -3.609375 C 17.34375 -3.953125 17.507812 -4.484375 17.59375 -5.203125 C 17.71875 -5.160156 17.914062 -5.015625 18.1875 -4.765625 C 18.46875 -4.523438 18.6875 -4.410156 18.84375 -4.421875 L 18.9375 -4.421875 C 18.914062 -4.503906 18.75 -4.644531 18.4375 -4.84375 L 18.34375 -4.96875 L 18.40625 -5.265625 L 17.984375 -5.53125 L 17.953125 -5.65625 L 17.921875 -5.6875 C 17.921875 -5.6875 17.941406 -5.695312 17.984375 -5.71875 L 18.015625 -5.75 L 17.984375 -5.75 L 17.953125 -5.984375 C 18.171875 -6.179688 18.460938 -6.28125 18.828125 -6.28125 C 19.578125 -6.28125 20.210938 -6.148438 20.734375 -5.890625 C 21.453125 -5.492188 22.101562 -4.894531 22.6875 -4.09375 C 23.28125 -3.300781 23.578125 -2.515625 23.578125 -1.734375 Z M 23.578125 -1.734375 "/></g></g></g></svg>